<mxfile host="app.diagrams.net" modified="2024-02-20T13:59:30.815Z" agent="Mozilla/5.0 (Windows NT 10.0; Win64; x64) AppleWebKit/537.36 (KHTML, like Gecko) Chrome/121.0.0.0 Safari/537.36" etag="sOuk7RLrBBTl0Q0iCGk6" version="23.1.5" type="github">
  <diagram name="Página-1" id="jOVp6zVabpsHPKE5AKwO">
    <mxGraphModel dx="1034" dy="514" grid="1" gridSize="10" guides="1" tooltips="1" connect="1" arrows="1" fold="1" page="1" pageScale="1" pageWidth="827" pageHeight="1169" math="0" shadow="0">
      <root>
        <mxCell id="0" />
        <mxCell id="1" parent="0" />
        <mxCell id="eQx5krM7MbTcfI7m4a8z-1" value="" style="ellipse;whiteSpace=wrap;html=1;aspect=fixed;" vertex="1" parent="1">
          <mxGeometry x="230" y="60" width="250" height="250" as="geometry" />
        </mxCell>
        <mxCell id="eQx5krM7MbTcfI7m4a8z-2" value="" style="ellipse;whiteSpace=wrap;html=1;aspect=fixed;" vertex="1" parent="1">
          <mxGeometry x="252.5" y="105" width="205" height="205" as="geometry" />
        </mxCell>
        <mxCell id="eQx5krM7MbTcfI7m4a8z-3" value="" style="ellipse;whiteSpace=wrap;html=1;aspect=fixed;" vertex="1" parent="1">
          <mxGeometry x="285" y="170" width="140" height="140" as="geometry" />
        </mxCell>
        <mxCell id="eQx5krM7MbTcfI7m4a8z-4" value="composição" style="text;strokeColor=none;align=center;fillColor=none;html=1;verticalAlign=middle;whiteSpace=wrap;rounded=0;" vertex="1" parent="1">
          <mxGeometry x="325" y="200" width="60" height="30" as="geometry" />
        </mxCell>
        <mxCell id="eQx5krM7MbTcfI7m4a8z-5" value="Agregação" style="text;strokeColor=none;align=center;fillColor=none;html=1;verticalAlign=middle;whiteSpace=wrap;rounded=0;" vertex="1" parent="1">
          <mxGeometry x="325" y="120" width="60" height="30" as="geometry" />
        </mxCell>
        <mxCell id="eQx5krM7MbTcfI7m4a8z-6" value="Função" style="text;strokeColor=none;align=center;fillColor=none;html=1;verticalAlign=middle;whiteSpace=wrap;rounded=0;" vertex="1" parent="1">
          <mxGeometry x="330" y="70" width="60" height="30" as="geometry" />
        </mxCell>
      </root>
    </mxGraphModel>
  </diagram>
</mxfile>
